<mxfile host="65bd71144e" pages="4">
    <diagram id="rXa_3mcKjLjqdh04rapx" name="Context Diagram">
        <mxGraphModel dx="1714" dy="815" grid="1" gridSize="10" guides="1" tooltips="1" connect="1" arrows="1" fold="1" page="1" pageScale="1" pageWidth="827" pageHeight="1169" math="0" shadow="0">
            <root>
                <mxCell id="0"/>
                <mxCell id="1" parent="0"/>
                <mxCell id="kHjGOg-kycF7FZ3R9nlm-1" value="Trello App" style="ellipse;whiteSpace=wrap;html=1;aspect=fixed;" parent="1" vertex="1">
                    <mxGeometry x="354" y="440" width="120" height="120" as="geometry"/>
                </mxCell>
                <mxCell id="kHjGOg-kycF7FZ3R9nlm-2" value="User" style="rounded=0;whiteSpace=wrap;html=1;" parent="1" vertex="1">
                    <mxGeometry x="130" y="660" width="120" height="60" as="geometry"/>
                </mxCell>
                <mxCell id="kHjGOg-kycF7FZ3R9nlm-3" value="Trello" style="whiteSpace=wrap;html=1;" parent="1" vertex="1">
                    <mxGeometry x="640" y="470" width="120" height="60" as="geometry"/>
                </mxCell>
                <mxCell id="kHjGOg-kycF7FZ3R9nlm-4" value="Webpage displaying to dos" style="whiteSpace=wrap;html=1;" parent="1" vertex="1">
                    <mxGeometry x="354" y="660" width="120" height="60" as="geometry"/>
                </mxCell>
                <mxCell id="kHjGOg-kycF7FZ3R9nlm-5" value="" style="endArrow=classic;html=1;entryX=0;entryY=0.5;entryDx=0;entryDy=0;" parent="1" target="kHjGOg-kycF7FZ3R9nlm-4" edge="1">
                    <mxGeometry width="50" height="50" relative="1" as="geometry">
                        <mxPoint x="250" y="689.5" as="sourcePoint"/>
                        <mxPoint x="330" y="689.5" as="targetPoint"/>
                        <Array as="points"/>
                    </mxGeometry>
                </mxCell>
                <mxCell id="kHjGOg-kycF7FZ3R9nlm-6" value="Updates to do" style="text;html=1;align=center;verticalAlign=middle;resizable=0;points=[];autosize=1;strokeColor=none;" parent="1" vertex="1">
                    <mxGeometry x="260" y="660" width="90" height="20" as="geometry"/>
                </mxCell>
                <mxCell id="kHjGOg-kycF7FZ3R9nlm-10" value="" style="endArrow=classic;html=1;entryX=0;entryY=0.25;entryDx=0;entryDy=0;exitX=1;exitY=0.5;exitDx=0;exitDy=0;" parent="1" source="kHjGOg-kycF7FZ3R9nlm-1" target="kHjGOg-kycF7FZ3R9nlm-3" edge="1">
                    <mxGeometry width="50" height="50" relative="1" as="geometry">
                        <mxPoint x="474" y="490" as="sourcePoint"/>
                        <mxPoint x="524" y="440" as="targetPoint"/>
                    </mxGeometry>
                </mxCell>
                <mxCell id="kHjGOg-kycF7FZ3R9nlm-11" value="Update to trello" style="text;html=1;align=center;verticalAlign=middle;resizable=0;points=[];autosize=1;strokeColor=none;" parent="1" vertex="1">
                    <mxGeometry x="490" y="460" width="100" height="20" as="geometry"/>
                </mxCell>
                <mxCell id="kHjGOg-kycF7FZ3R9nlm-12" value="" style="endArrow=classic;html=1;exitX=0;exitY=0.75;exitDx=0;exitDy=0;" parent="1" source="kHjGOg-kycF7FZ3R9nlm-3" edge="1">
                    <mxGeometry width="50" height="50" relative="1" as="geometry">
                        <mxPoint x="390" y="610" as="sourcePoint"/>
                        <mxPoint x="480" y="515" as="targetPoint"/>
                    </mxGeometry>
                </mxCell>
                <mxCell id="kHjGOg-kycF7FZ3R9nlm-13" value="Updates to do app" style="text;html=1;align=center;verticalAlign=middle;resizable=0;points=[];autosize=1;strokeColor=none;" parent="1" vertex="1">
                    <mxGeometry x="495" y="520" width="110" height="20" as="geometry"/>
                </mxCell>
                <mxCell id="kHjGOg-kycF7FZ3R9nlm-14" value="" style="endArrow=classic;html=1;entryX=0.75;entryY=0;entryDx=0;entryDy=0;exitX=1;exitY=1;exitDx=0;exitDy=0;" parent="1" source="kHjGOg-kycF7FZ3R9nlm-1" target="kHjGOg-kycF7FZ3R9nlm-4" edge="1">
                    <mxGeometry width="50" height="50" relative="1" as="geometry">
                        <mxPoint x="390" y="610" as="sourcePoint"/>
                        <mxPoint x="440" y="560" as="targetPoint"/>
                    </mxGeometry>
                </mxCell>
                <mxCell id="kHjGOg-kycF7FZ3R9nlm-15" value="Updates the webpage" style="text;html=1;align=center;verticalAlign=middle;resizable=0;points=[];autosize=1;strokeColor=none;" parent="1" vertex="1">
                    <mxGeometry x="460" y="600" width="130" height="20" as="geometry"/>
                </mxCell>
                <mxCell id="Zt_fTin8N-_Yh9ZIIJml-1" value="" style="endArrow=classic;html=1;exitX=0.25;exitY=0;exitDx=0;exitDy=0;entryX=0.5;entryY=1;entryDx=0;entryDy=0;" parent="1" source="kHjGOg-kycF7FZ3R9nlm-4" target="kHjGOg-kycF7FZ3R9nlm-1" edge="1">
                    <mxGeometry width="50" height="50" relative="1" as="geometry">
                        <mxPoint x="390" y="580" as="sourcePoint"/>
                        <mxPoint x="440" y="530" as="targetPoint"/>
                    </mxGeometry>
                </mxCell>
                <mxCell id="Zt_fTin8N-_Yh9ZIIJml-2" value="Updates app" style="text;html=1;align=center;verticalAlign=middle;resizable=0;points=[];autosize=1;strokeColor=none;" parent="1" vertex="1">
                    <mxGeometry x="310" y="590" width="80" height="20" as="geometry"/>
                </mxCell>
            </root>
        </mxGraphModel>
    </diagram>
    <diagram id="mXMczAWaCMBj_zpUfVWg" name="Container Diagram">
        <mxGraphModel dx="1714" dy="815" grid="1" gridSize="10" guides="1" tooltips="1" connect="1" arrows="1" fold="1" page="1" pageScale="1" pageWidth="827" pageHeight="1169" math="0" shadow="0">
            <root>
                <mxCell id="oqoYh7W6xdfj-P778-bz-0"/>
                <mxCell id="oqoYh7W6xdfj-P778-bz-1" parent="oqoYh7W6xdfj-P778-bz-0"/>
                <mxCell id="jVKp-yVkIQuqzz-rkKUH-10" style="edgeStyle=none;html=1;" edge="1" parent="oqoYh7W6xdfj-P778-bz-1" source="5TTsEKIA30fmTrXliHi7-0" target="jVKp-yVkIQuqzz-rkKUH-7">
                    <mxGeometry relative="1" as="geometry"/>
                </mxCell>
                <mxCell id="5TTsEKIA30fmTrXliHi7-0" value="User&lt;br&gt;Someone looking to update the to dos" style="whiteSpace=wrap;html=1;aspect=fixed;" parent="oqoYh7W6xdfj-P778-bz-1" vertex="1">
                    <mxGeometry x="110" y="110" width="120" height="120" as="geometry"/>
                </mxCell>
                <mxCell id="5TTsEKIA30fmTrXliHi7-3" value="To do App" style="swimlane;" parent="oqoYh7W6xdfj-P778-bz-1" vertex="1">
                    <mxGeometry x="40" y="340" width="490" height="420" as="geometry"/>
                </mxCell>
                <mxCell id="NdfydeS8SnCpgqc8Iw7V-0" value="Web Application&lt;br&gt;[HTML/Java Script]&amp;nbsp;&lt;br&gt;&lt;br&gt;Displays current state of todos and allows user to update" style="whiteSpace=wrap;html=1;aspect=fixed;" parent="5TTsEKIA30fmTrXliHi7-3" vertex="1">
                    <mxGeometry x="30" y="30" width="130" height="130" as="geometry"/>
                </mxCell>
                <mxCell id="NdfydeS8SnCpgqc8Iw7V-3" value="API Jobs&lt;br&gt;[Python]&lt;br&gt;&lt;br&gt;Sends request to Trello" style="whiteSpace=wrap;html=1;aspect=fixed;" parent="5TTsEKIA30fmTrXliHi7-3" vertex="1">
                    <mxGeometry x="280" y="35" width="120" height="120" as="geometry"/>
                </mxCell>
                <mxCell id="NdfydeS8SnCpgqc8Iw7V-4" value="To do app recieves from Trello and then coverts into HTML" style="whiteSpace=wrap;html=1;aspect=fixed;" parent="5TTsEKIA30fmTrXliHi7-3" vertex="1">
                    <mxGeometry x="150" y="235" width="120" height="120" as="geometry"/>
                </mxCell>
                <mxCell id="NdfydeS8SnCpgqc8Iw7V-6" value="" style="endArrow=classic;html=1;exitX=0.25;exitY=0;exitDx=0;exitDy=0;entryX=0.75;entryY=1;entryDx=0;entryDy=0;" parent="5TTsEKIA30fmTrXliHi7-3" source="NdfydeS8SnCpgqc8Iw7V-4" target="NdfydeS8SnCpgqc8Iw7V-0" edge="1">
                    <mxGeometry width="50" height="50" relative="1" as="geometry">
                        <mxPoint x="340" y="260" as="sourcePoint"/>
                        <mxPoint x="390" y="210" as="targetPoint"/>
                    </mxGeometry>
                </mxCell>
                <mxCell id="NdfydeS8SnCpgqc8Iw7V-2" value="" style="endArrow=classic;html=1;exitX=1;exitY=0.5;exitDx=0;exitDy=0;entryX=0;entryY=0.5;entryDx=0;entryDy=0;" parent="5TTsEKIA30fmTrXliHi7-3" source="NdfydeS8SnCpgqc8Iw7V-0" target="NdfydeS8SnCpgqc8Iw7V-3" edge="1">
                    <mxGeometry width="50" height="50" relative="1" as="geometry">
                        <mxPoint x="340" y="320" as="sourcePoint"/>
                        <mxPoint x="270" y="95" as="targetPoint"/>
                    </mxGeometry>
                </mxCell>
                <mxCell id="NdfydeS8SnCpgqc8Iw7V-9" value="Makes API Call" style="text;html=1;align=center;verticalAlign=middle;resizable=0;points=[];autosize=1;strokeColor=none;" parent="5TTsEKIA30fmTrXliHi7-3" vertex="1">
                    <mxGeometry x="170" y="70" width="100" height="20" as="geometry"/>
                </mxCell>
                <mxCell id="jVKp-yVkIQuqzz-rkKUH-0" value="" style="endArrow=classic;html=1;" edge="1" parent="5TTsEKIA30fmTrXliHi7-3">
                    <mxGeometry width="50" height="50" relative="1" as="geometry">
                        <mxPoint x="410" y="130" as="sourcePoint"/>
                        <mxPoint x="510" y="130" as="targetPoint"/>
                    </mxGeometry>
                </mxCell>
                <mxCell id="NdfydeS8SnCpgqc8Iw7V-7" value="" style="endArrow=classic;html=1;exitX=0.118;exitY=0;exitDx=0;exitDy=0;exitPerimeter=0;entryX=0.25;entryY=1;entryDx=0;entryDy=0;" parent="oqoYh7W6xdfj-P778-bz-1" source="5TTsEKIA30fmTrXliHi7-3" target="5TTsEKIA30fmTrXliHi7-0" edge="1">
                    <mxGeometry width="50" height="50" relative="1" as="geometry">
                        <mxPoint x="390" y="590" as="sourcePoint"/>
                        <mxPoint x="440" y="540" as="targetPoint"/>
                        <Array as="points"/>
                    </mxGeometry>
                </mxCell>
                <mxCell id="NdfydeS8SnCpgqc8Iw7V-8" value="HTML" style="text;html=1;align=center;verticalAlign=middle;resizable=0;points=[];autosize=1;strokeColor=none;" parent="oqoYh7W6xdfj-P778-bz-1" vertex="1">
                    <mxGeometry x="55" y="280" width="50" height="20" as="geometry"/>
                </mxCell>
                <mxCell id="NdfydeS8SnCpgqc8Iw7V-11" value="Sends data to HTML" style="text;html=1;align=center;verticalAlign=middle;resizable=0;points=[];autosize=1;strokeColor=none;" parent="oqoYh7W6xdfj-P778-bz-1" vertex="1">
                    <mxGeometry x="75" y="520" width="130" height="20" as="geometry"/>
                </mxCell>
                <mxCell id="jVKp-yVkIQuqzz-rkKUH-1" value="" style="swimlane;startSize=0;" vertex="1" parent="oqoYh7W6xdfj-P778-bz-1">
                    <mxGeometry x="560" y="420" width="220" height="90" as="geometry"/>
                </mxCell>
                <mxCell id="jVKp-yVkIQuqzz-rkKUH-2" value="&lt;span&gt;Trello App&lt;/span&gt;&lt;br&gt;&lt;span&gt;[Python]&lt;/span&gt;&lt;br&gt;&lt;br&gt;Recieves API and sends back results" style="text;html=1;align=center;verticalAlign=middle;resizable=0;points=[];autosize=1;strokeColor=none;fillColor=none;" vertex="1" parent="jVKp-yVkIQuqzz-rkKUH-1">
                    <mxGeometry x="5" y="10" width="210" height="60" as="geometry"/>
                </mxCell>
                <mxCell id="NdfydeS8SnCpgqc8Iw7V-5" value="" style="endArrow=classic;html=1;exitX=-0.01;exitY=0.911;exitDx=0;exitDy=0;entryX=0.75;entryY=0;entryDx=0;entryDy=0;exitPerimeter=0;" parent="oqoYh7W6xdfj-P778-bz-1" source="jVKp-yVkIQuqzz-rkKUH-1" target="NdfydeS8SnCpgqc8Iw7V-4" edge="1">
                    <mxGeometry width="50" height="50" relative="1" as="geometry">
                        <mxPoint x="380" y="600" as="sourcePoint"/>
                        <mxPoint x="430" y="550" as="targetPoint"/>
                    </mxGeometry>
                </mxCell>
                <mxCell id="jVKp-yVkIQuqzz-rkKUH-6" value="" style="edgeStyle=none;html=1;" edge="1" parent="oqoYh7W6xdfj-P778-bz-1" source="jVKp-yVkIQuqzz-rkKUH-3" target="5TTsEKIA30fmTrXliHi7-0">
                    <mxGeometry relative="1" as="geometry"/>
                </mxCell>
                <mxCell id="jVKp-yVkIQuqzz-rkKUH-3" value="Docker hosted to do App&lt;br&gt;&lt;br&gt;Container with latest release of app" style="rounded=0;whiteSpace=wrap;html=1;" vertex="1" parent="oqoYh7W6xdfj-P778-bz-1">
                    <mxGeometry x="110" y="10" width="120" height="70" as="geometry"/>
                </mxCell>
                <mxCell id="jVKp-yVkIQuqzz-rkKUH-12" value="" style="edgeStyle=none;html=1;" edge="1" parent="oqoYh7W6xdfj-P778-bz-1" source="jVKp-yVkIQuqzz-rkKUH-7" target="jVKp-yVkIQuqzz-rkKUH-11">
                    <mxGeometry relative="1" as="geometry"/>
                </mxCell>
                <mxCell id="jVKp-yVkIQuqzz-rkKUH-7" value="" style="rounded=0;whiteSpace=wrap;html=1;" vertex="1" parent="oqoYh7W6xdfj-P778-bz-1">
                    <mxGeometry x="319" y="160" width="190" height="60" as="geometry"/>
                </mxCell>
                <mxCell id="jVKp-yVkIQuqzz-rkKUH-9" value="Gunicorn to send to flask" style="text;html=1;align=center;verticalAlign=middle;resizable=0;points=[];autosize=1;strokeColor=none;fillColor=none;" vertex="1" parent="oqoYh7W6xdfj-P778-bz-1">
                    <mxGeometry x="339" y="180" width="150" height="20" as="geometry"/>
                </mxCell>
                <mxCell id="jVKp-yVkIQuqzz-rkKUH-13" value="" style="edgeStyle=none;html=1;entryX=0.75;entryY=0;entryDx=0;entryDy=0;" edge="1" parent="oqoYh7W6xdfj-P778-bz-1" source="jVKp-yVkIQuqzz-rkKUH-11" target="5TTsEKIA30fmTrXliHi7-3">
                    <mxGeometry relative="1" as="geometry"/>
                </mxCell>
                <mxCell id="jVKp-yVkIQuqzz-rkKUH-11" value="Flask" style="text;html=1;strokeColor=none;fillColor=none;align=center;verticalAlign=middle;whiteSpace=wrap;rounded=0;" vertex="1" parent="oqoYh7W6xdfj-P778-bz-1">
                    <mxGeometry x="384" y="260" width="60" height="30" as="geometry"/>
                </mxCell>
            </root>
        </mxGraphModel>
    </diagram>
    <diagram id="e9s7ECl1Ku8i2pHt9bS3" name="Component Diagram">
        <mxGraphModel dx="1714" dy="815" grid="1" gridSize="10" guides="1" tooltips="1" connect="1" arrows="1" fold="1" page="1" pageScale="1" pageWidth="827" pageHeight="1169" math="0" shadow="0">
            <root>
                <mxCell id="xsmqdh3Ktp_JiC-GkIzY-0"/>
                <mxCell id="xsmqdh3Ktp_JiC-GkIzY-1" parent="xsmqdh3Ktp_JiC-GkIzY-0"/>
                <mxCell id="t1xFbgqLY2M7mgzJaqOS-8" value="" style="edgeStyle=none;html=1;" edge="1" parent="xsmqdh3Ktp_JiC-GkIzY-1" source="t1xFbgqLY2M7mgzJaqOS-1" target="t1xFbgqLY2M7mgzJaqOS-2">
                    <mxGeometry relative="1" as="geometry"/>
                </mxCell>
                <mxCell id="t1xFbgqLY2M7mgzJaqOS-1" value="&lt;span&gt;To do app&lt;/span&gt;&lt;br&gt;Displays all outstanding to dos to a user" style="rounded=0;whiteSpace=wrap;html=1;fontStyle=1" vertex="1" parent="xsmqdh3Ktp_JiC-GkIzY-1">
                    <mxGeometry x="40" y="40" width="120" height="60" as="geometry"/>
                </mxCell>
                <mxCell id="t1xFbgqLY2M7mgzJaqOS-11" value="" style="edgeStyle=none;html=1;" edge="1" parent="xsmqdh3Ktp_JiC-GkIzY-1" source="t1xFbgqLY2M7mgzJaqOS-2" target="t1xFbgqLY2M7mgzJaqOS-3">
                    <mxGeometry relative="1" as="geometry"/>
                </mxCell>
                <mxCell id="t1xFbgqLY2M7mgzJaqOS-2" value="Gunicorn/Flask" style="rounded=0;whiteSpace=wrap;html=1;" vertex="1" parent="xsmqdh3Ktp_JiC-GkIzY-1">
                    <mxGeometry x="40" y="200" width="120" height="60" as="geometry"/>
                </mxCell>
                <mxCell id="t1xFbgqLY2M7mgzJaqOS-13" value="" style="edgeStyle=none;html=1;" edge="1" parent="xsmqdh3Ktp_JiC-GkIzY-1" source="t1xFbgqLY2M7mgzJaqOS-3" target="t1xFbgqLY2M7mgzJaqOS-4">
                    <mxGeometry relative="1" as="geometry"/>
                </mxCell>
                <mxCell id="t1xFbgqLY2M7mgzJaqOS-15" value="" style="edgeStyle=none;html=1;" edge="1" parent="xsmqdh3Ktp_JiC-GkIzY-1" source="t1xFbgqLY2M7mgzJaqOS-4" target="t1xFbgqLY2M7mgzJaqOS-6">
                    <mxGeometry relative="1" as="geometry"/>
                </mxCell>
                <mxCell id="t1xFbgqLY2M7mgzJaqOS-4" value="&lt;div style=&quot;color: rgb(212 , 212 , 212) ; background-color: rgb(30 , 30 , 30) ; font-family: &amp;#34;consolas&amp;#34; , &amp;#34;courier new&amp;#34; , monospace ; font-size: 14px ; line-height: 19px&quot;&gt;&lt;span style=&quot;color: #569cd6&quot;&gt;def&lt;/span&gt; &lt;span style=&quot;color: #dcdcaa&quot;&gt;get_card&lt;/span&gt;():&lt;/div&gt;&lt;br&gt;GET Trello Results" style="rounded=0;whiteSpace=wrap;html=1;" vertex="1" parent="xsmqdh3Ktp_JiC-GkIzY-1">
                    <mxGeometry x="230" y="320" width="120" height="60" as="geometry"/>
                </mxCell>
                <mxCell id="t1xFbgqLY2M7mgzJaqOS-21" value="" style="edgeStyle=none;html=1;" edge="1" parent="xsmqdh3Ktp_JiC-GkIzY-1" source="t1xFbgqLY2M7mgzJaqOS-6" target="t1xFbgqLY2M7mgzJaqOS-17">
                    <mxGeometry relative="1" as="geometry"/>
                </mxCell>
                <mxCell id="t1xFbgqLY2M7mgzJaqOS-6" value="Trello" style="whiteSpace=wrap;html=1;" vertex="1" parent="xsmqdh3Ktp_JiC-GkIzY-1">
                    <mxGeometry x="230" y="440" width="120" height="60" as="geometry"/>
                </mxCell>
                <mxCell id="t1xFbgqLY2M7mgzJaqOS-9" value="HTML Request" style="text;html=1;align=center;verticalAlign=middle;resizable=0;points=[];autosize=1;strokeColor=none;fillColor=none;" vertex="1" parent="xsmqdh3Ktp_JiC-GkIzY-1">
                    <mxGeometry x="110" y="130" width="100" height="20" as="geometry"/>
                </mxCell>
                <mxCell id="t1xFbgqLY2M7mgzJaqOS-10" value="Application" style="swimlane;" vertex="1" parent="xsmqdh3Ktp_JiC-GkIzY-1">
                    <mxGeometry x="30" y="170" width="790" height="400" as="geometry"/>
                </mxCell>
                <mxCell id="t1xFbgqLY2M7mgzJaqOS-12" value="Python" style="text;html=1;align=center;verticalAlign=middle;resizable=0;points=[];autosize=1;strokeColor=none;fillColor=none;" vertex="1" parent="t1xFbgqLY2M7mgzJaqOS-10">
                    <mxGeometry x="135" y="70" width="50" height="20" as="geometry"/>
                </mxCell>
                <mxCell id="t1xFbgqLY2M7mgzJaqOS-14" value="Python" style="text;html=1;align=center;verticalAlign=middle;resizable=0;points=[];autosize=1;strokeColor=none;fillColor=none;" vertex="1" parent="t1xFbgqLY2M7mgzJaqOS-10">
                    <mxGeometry x="265" y="110" width="50" height="20" as="geometry"/>
                </mxCell>
                <mxCell id="t1xFbgqLY2M7mgzJaqOS-16" value="Make API call" style="text;html=1;align=center;verticalAlign=middle;resizable=0;points=[];autosize=1;strokeColor=none;fillColor=none;" vertex="1" parent="t1xFbgqLY2M7mgzJaqOS-10">
                    <mxGeometry x="265" y="230" width="90" height="20" as="geometry"/>
                </mxCell>
                <mxCell id="t1xFbgqLY2M7mgzJaqOS-31" value="" style="edgeStyle=none;html=1;" edge="1" parent="t1xFbgqLY2M7mgzJaqOS-10" source="t1xFbgqLY2M7mgzJaqOS-20" target="t1xFbgqLY2M7mgzJaqOS-29">
                    <mxGeometry relative="1" as="geometry"/>
                </mxCell>
                <mxCell id="t1xFbgqLY2M7mgzJaqOS-20" value="&lt;div style=&quot;color: rgb(212 , 212 , 212) ; background-color: rgb(30 , 30 , 30) ; font-family: &amp;#34;consolas&amp;#34; , &amp;#34;courier new&amp;#34; , monospace ; font-size: 14px ; line-height: 19px&quot;&gt;&lt;span style=&quot;color: #569cd6&quot;&gt;def&lt;/span&gt; &lt;span style=&quot;color: #dcdcaa&quot;&gt;add_item&lt;/span&gt;(&lt;span style=&quot;color: #9cdcfe&quot;&gt;name&lt;/span&gt;):&lt;/div&gt;Any changes to the to dos&amp;nbsp;" style="whiteSpace=wrap;html=1;" vertex="1" parent="t1xFbgqLY2M7mgzJaqOS-10">
                    <mxGeometry x="370" y="150" width="120" height="70" as="geometry"/>
                </mxCell>
                <mxCell id="t1xFbgqLY2M7mgzJaqOS-22" value="" style="edgeStyle=none;html=1;" edge="1" parent="t1xFbgqLY2M7mgzJaqOS-10" source="t1xFbgqLY2M7mgzJaqOS-3" target="t1xFbgqLY2M7mgzJaqOS-20">
                    <mxGeometry relative="1" as="geometry"/>
                </mxCell>
                <mxCell id="t1xFbgqLY2M7mgzJaqOS-27" style="edgeStyle=none;html=1;exitX=1;exitY=0.5;exitDx=0;exitDy=0;" edge="1" parent="t1xFbgqLY2M7mgzJaqOS-10" source="t1xFbgqLY2M7mgzJaqOS-3" target="t1xFbgqLY2M7mgzJaqOS-26">
                    <mxGeometry relative="1" as="geometry"/>
                </mxCell>
                <mxCell id="t1xFbgqLY2M7mgzJaqOS-3" value="App.py" style="rounded=0;whiteSpace=wrap;html=1;" vertex="1" parent="t1xFbgqLY2M7mgzJaqOS-10">
                    <mxGeometry x="335" y="30" width="120" height="60" as="geometry"/>
                </mxCell>
                <mxCell id="t1xFbgqLY2M7mgzJaqOS-23" value="Python" style="text;html=1;align=center;verticalAlign=middle;resizable=0;points=[];autosize=1;strokeColor=none;fillColor=none;" vertex="1" parent="t1xFbgqLY2M7mgzJaqOS-10">
                    <mxGeometry x="440" y="110" width="50" height="20" as="geometry"/>
                </mxCell>
                <mxCell id="t1xFbgqLY2M7mgzJaqOS-26" value="&lt;div style=&quot;color: rgb(212 , 212 , 212) ; background-color: rgb(30 , 30 , 30) ; font-family: &amp;#34;consolas&amp;#34; , &amp;#34;courier new&amp;#34; , monospace ; font-size: 14px ; line-height: 19px&quot;&gt;&lt;span style=&quot;color: #569cd6&quot;&gt;def&lt;/span&gt; &lt;span style=&quot;color: #dcdcaa&quot;&gt;complete_item&lt;/span&gt;(&lt;span style=&quot;color: #9cdcfe&quot;&gt;id&lt;/span&gt;):&lt;/div&gt;&lt;br&gt;Complete items" style="whiteSpace=wrap;html=1;" vertex="1" parent="t1xFbgqLY2M7mgzJaqOS-10">
                    <mxGeometry x="530" y="150" width="120" height="60" as="geometry"/>
                </mxCell>
                <mxCell id="t1xFbgqLY2M7mgzJaqOS-29" value="POST API Request to update database" style="text;html=1;align=center;verticalAlign=middle;resizable=0;points=[];autosize=1;strokeColor=none;fillColor=none;" vertex="1" parent="t1xFbgqLY2M7mgzJaqOS-10">
                    <mxGeometry x="400" y="280" width="220" height="20" as="geometry"/>
                </mxCell>
                <mxCell id="t1xFbgqLY2M7mgzJaqOS-28" style="edgeStyle=none;html=1;exitX=0.25;exitY=1;exitDx=0;exitDy=0;entryX=0.677;entryY=0.1;entryDx=0;entryDy=0;entryPerimeter=0;" edge="1" parent="t1xFbgqLY2M7mgzJaqOS-10" source="t1xFbgqLY2M7mgzJaqOS-26" target="t1xFbgqLY2M7mgzJaqOS-29">
                    <mxGeometry relative="1" as="geometry"/>
                </mxCell>
                <mxCell id="t1xFbgqLY2M7mgzJaqOS-17" value="Database" style="rounded=0;whiteSpace=wrap;html=1;direction=east;" vertex="1" parent="xsmqdh3Ktp_JiC-GkIzY-1">
                    <mxGeometry x="340" y="610" width="130" height="60" as="geometry"/>
                </mxCell>
                <mxCell id="t1xFbgqLY2M7mgzJaqOS-30" style="edgeStyle=none;html=1;entryX=0.75;entryY=0;entryDx=0;entryDy=0;" edge="1" parent="xsmqdh3Ktp_JiC-GkIzY-1" source="t1xFbgqLY2M7mgzJaqOS-29" target="t1xFbgqLY2M7mgzJaqOS-17">
                    <mxGeometry relative="1" as="geometry"/>
                </mxCell>
            </root>
        </mxGraphModel>
    </diagram>
</mxfile>